<svg xmlns="http://www.w3.org/2000/svg" xmlns:xlink="http://www.w3.org/1999/xlink" width="500" zoomAndPan="magnify" viewBox="0 0 375 374.999991" height="500" preserveAspectRatio="xMidYMid meet" version="1.0"><defs><clipPath id="0883aa3e6b"><path d="M 74.808594 73.910156 L 301.089844 73.910156 L 301.089844 300.191406 L 74.808594 300.191406 Z M 74.808594 73.910156 " clip-rule="nonzero"/></clipPath><clipPath id="329d6c9d73"><path d="M 187.949219 73.910156 C 125.464844 73.910156 74.808594 124.566406 74.808594 187.050781 C 74.808594 249.535156 125.464844 300.191406 187.949219 300.191406 C 250.433594 300.191406 301.089844 249.535156 301.089844 187.050781 C 301.089844 124.566406 250.433594 73.910156 187.949219 73.910156 Z M 187.949219 73.910156 " clip-rule="nonzero"/></clipPath><clipPath id="6e7fffd4fe"><path d="M 0.808594 0.910156 L 227.089844 0.910156 L 227.089844 227.191406 L 0.808594 227.191406 Z M 0.808594 0.910156 " clip-rule="nonzero"/></clipPath><clipPath id="1071ce4f5d"><path d="M 113.949219 0.910156 C 51.464844 0.910156 0.808594 51.566406 0.808594 114.050781 C 0.808594 176.535156 51.464844 227.191406 113.949219 227.191406 C 176.433594 227.191406 227.089844 176.535156 227.089844 114.050781 C 227.089844 51.566406 176.433594 0.910156 113.949219 0.910156 Z M 113.949219 0.910156 " clip-rule="nonzero"/></clipPath><clipPath id="8ec88ab86d"><rect x="0" width="228" y="0" height="228"/></clipPath><clipPath id="802c935d83"><path d="M 74.808594 73.910156 L 301.085938 73.910156 L 301.085938 300.1875 L 74.808594 300.1875 Z M 74.808594 73.910156 " clip-rule="nonzero"/></clipPath><clipPath id="576f29b98c"><path d="M 187.949219 73.910156 C 125.464844 73.910156 74.808594 124.566406 74.808594 187.050781 C 74.808594 249.535156 125.464844 300.1875 187.949219 300.1875 C 250.433594 300.1875 301.085938 249.535156 301.085938 187.050781 C 301.085938 124.566406 250.433594 73.910156 187.949219 73.910156 Z M 187.949219 73.910156 " clip-rule="nonzero"/></clipPath><clipPath id="634ff05b28"><path d="M 152.820312 55.078125 L 223.078125 55.078125 L 223.078125 125.335938 L 152.820312 125.335938 Z M 152.820312 55.078125 " clip-rule="nonzero"/></clipPath><clipPath id="29db109f9b"><path d="M 187.949219 55.078125 C 168.546875 55.078125 152.820312 70.804688 152.820312 90.207031 C 152.820312 109.605469 168.546875 125.335938 187.949219 125.335938 C 207.351562 125.335938 223.078125 109.605469 223.078125 90.207031 C 223.078125 70.804688 207.351562 55.078125 187.949219 55.078125 Z M 187.949219 55.078125 " clip-rule="nonzero"/></clipPath><clipPath id="fbe8cbb9d8"><path d="M 0.820312 0.078125 L 71.078125 0.078125 L 71.078125 70.335938 L 0.820312 70.335938 Z M 0.820312 0.078125 " clip-rule="nonzero"/></clipPath><clipPath id="a8f479256e"><path d="M 35.949219 0.078125 C 16.546875 0.078125 0.820312 15.804688 0.820312 35.207031 C 0.820312 54.605469 16.546875 70.335938 35.949219 70.335938 C 55.351562 70.335938 71.078125 54.605469 71.078125 35.207031 C 71.078125 15.804688 55.351562 0.078125 35.949219 0.078125 Z M 35.949219 0.078125 " clip-rule="nonzero"/></clipPath><clipPath id="3ae314eedd"><rect x="0" width="72" y="0" height="71"/></clipPath><clipPath id="1ac9a6a953"><path d="M 252.964844 151.921875 L 323.222656 151.921875 L 323.222656 222.179688 L 252.964844 222.179688 Z M 252.964844 151.921875 " clip-rule="nonzero"/></clipPath><clipPath id="540c442f17"><path d="M 288.09375 151.921875 C 268.691406 151.921875 252.964844 167.648438 252.964844 187.050781 C 252.964844 206.453125 268.691406 222.179688 288.09375 222.179688 C 307.496094 222.179688 323.222656 206.453125 323.222656 187.050781 C 323.222656 167.648438 307.496094 151.921875 288.09375 151.921875 Z M 288.09375 151.921875 " clip-rule="nonzero"/></clipPath><clipPath id="0274f40d0c"><path d="M 0.964844 0.921875 L 71.222656 0.921875 L 71.222656 71.179688 L 0.964844 71.179688 Z M 0.964844 0.921875 " clip-rule="nonzero"/></clipPath><clipPath id="5de63b0240"><path d="M 36.09375 0.921875 C 16.691406 0.921875 0.964844 16.648438 0.964844 36.050781 C 0.964844 55.453125 16.691406 71.179688 36.09375 71.179688 C 55.496094 71.179688 71.222656 55.453125 71.222656 36.050781 C 71.222656 16.648438 55.496094 0.921875 36.09375 0.921875 Z M 36.09375 0.921875 " clip-rule="nonzero"/></clipPath><clipPath id="012fcf5bc6"><rect x="0" width="72" y="0" height="72"/></clipPath><clipPath id="d9b22a1af9"><path d="M 152.820312 249.664062 L 223.078125 249.664062 L 223.078125 319.921875 L 152.820312 319.921875 Z M 152.820312 249.664062 " clip-rule="nonzero"/></clipPath><clipPath id="7b699ebc42"><path d="M 187.949219 249.664062 C 168.546875 249.664062 152.820312 265.394531 152.820312 284.792969 C 152.820312 304.195312 168.546875 319.921875 187.949219 319.921875 C 207.351562 319.921875 223.078125 304.195312 223.078125 284.792969 C 223.078125 265.394531 207.351562 249.664062 187.949219 249.664062 Z M 187.949219 249.664062 " clip-rule="nonzero"/></clipPath><clipPath id="048655281b"><path d="M 0.820312 0.664062 L 71.078125 0.664062 L 71.078125 70.921875 L 0.820312 70.921875 Z M 0.820312 0.664062 " clip-rule="nonzero"/></clipPath><clipPath id="0a8fead707"><path d="M 35.949219 0.664062 C 16.546875 0.664062 0.820312 16.394531 0.820312 35.792969 C 0.820312 55.195312 16.546875 70.921875 35.949219 70.921875 C 55.351562 70.921875 71.078125 55.195312 71.078125 35.792969 C 71.078125 16.394531 55.351562 0.664062 35.949219 0.664062 Z M 35.949219 0.664062 " clip-rule="nonzero"/></clipPath><clipPath id="8cb8cc892e"><rect x="0" width="72" y="0" height="71"/></clipPath><clipPath id="eecf1f20d0"><path d="M 51.777344 151.921875 L 122.035156 151.921875 L 122.035156 222.179688 L 51.777344 222.179688 Z M 51.777344 151.921875 " clip-rule="nonzero"/></clipPath><clipPath id="d085de20e4"><path d="M 86.90625 151.921875 C 67.503906 151.921875 51.777344 167.648438 51.777344 187.050781 C 51.777344 206.453125 67.503906 222.179688 86.90625 222.179688 C 106.308594 222.179688 122.035156 206.453125 122.035156 187.050781 C 122.035156 167.648438 106.308594 151.921875 86.90625 151.921875 Z M 86.90625 151.921875 " clip-rule="nonzero"/></clipPath><clipPath id="1408f822cc"><path d="M 0.777344 0.921875 L 71.035156 0.921875 L 71.035156 71.179688 L 0.777344 71.179688 Z M 0.777344 0.921875 " clip-rule="nonzero"/></clipPath><clipPath id="c2ac6cc15e"><path d="M 35.90625 0.921875 C 16.503906 0.921875 0.777344 16.648438 0.777344 36.050781 C 0.777344 55.453125 16.503906 71.179688 35.90625 71.179688 C 55.308594 71.179688 71.035156 55.453125 71.035156 36.050781 C 71.035156 16.648438 55.308594 0.921875 35.90625 0.921875 Z M 35.90625 0.921875 " clip-rule="nonzero"/></clipPath><clipPath id="77b5f5f600"><rect x="0" width="72" y="0" height="72"/></clipPath><clipPath id="eb9a07b828"><path d="M 87.671875 87.226562 L 287.921875 87.226562 L 287.921875 287.476562 L 87.671875 287.476562 Z M 87.671875 87.226562 " clip-rule="nonzero"/></clipPath></defs><g clip-path="url(#0883aa3e6b)"><g clip-path="url(#329d6c9d73)"><g transform="matrix(1, 0, 0, 1, 74, 73)"><g clip-path="url(#8ec88ab86d)"><g clip-path="url(#6e7fffd4fe)"><g clip-path="url(#1071ce4f5d)"><path fill="#000000" d="M 0.808594 0.910156 L 227.089844 0.910156 L 227.089844 227.191406 L 0.808594 227.191406 Z M 0.808594 0.910156 " fill-opacity="1" fill-rule="nonzero"/></g></g></g></g></g></g><g clip-path="url(#802c935d83)"><g clip-path="url(#576f29b98c)"><path stroke-linecap="butt" transform="matrix(0.75, 0, 0, 0.75, 74.809058, 73.910561)" fill="none" stroke-linejoin="miter" d="M 150.853558 -0.000539329 C 67.541052 -0.000539329 -0.000618983 67.541132 -0.000618983 150.853637 C -0.000618983 234.166143 67.541052 301.702605 150.853558 301.702605 C 234.166063 301.702605 301.702526 234.166143 301.702526 150.853637 C 301.702526 67.541132 234.166063 -0.000539329 150.853558 -0.000539329 Z M 150.853558 -0.000539329 " stroke="#ffffff" stroke-width="40" stroke-opacity="1" stroke-miterlimit="4"/></g></g><g clip-path="url(#634ff05b28)"><g clip-path="url(#29db109f9b)"><g transform="matrix(1, 0, 0, 1, 152, 55)"><g clip-path="url(#3ae314eedd)"><g clip-path="url(#fbe8cbb9d8)"><g clip-path="url(#a8f479256e)"><path fill="#22d3ee" d="M 0.820312 0.078125 L 71.078125 0.078125 L 71.078125 70.335938 L 0.820312 70.335938 Z M 0.820312 0.078125 " fill-opacity="1" fill-rule="nonzero"/></g></g></g></g></g></g><g clip-path="url(#1ac9a6a953)"><g clip-path="url(#540c442f17)"><g transform="matrix(1, 0, 0, 1, 252, 151)"><g clip-path="url(#012fcf5bc6)"><g clip-path="url(#0274f40d0c)"><g clip-path="url(#5de63b0240)"><path fill="#22d3ee" d="M 0.964844 0.921875 L 71.222656 0.921875 L 71.222656 71.179688 L 0.964844 71.179688 Z M 0.964844 0.921875 " fill-opacity="1" fill-rule="nonzero"/></g></g></g></g></g></g><g clip-path="url(#d9b22a1af9)"><g clip-path="url(#7b699ebc42)"><g transform="matrix(1, 0, 0, 1, 152, 249)"><g clip-path="url(#8cb8cc892e)"><g clip-path="url(#048655281b)"><g clip-path="url(#0a8fead707)"><path fill="#22d3ee" d="M 0.820312 0.664062 L 71.078125 0.664062 L 71.078125 70.921875 L 0.820312 70.921875 Z M 0.820312 0.664062 " fill-opacity="1" fill-rule="nonzero"/></g></g></g></g></g></g><g clip-path="url(#eecf1f20d0)"><g clip-path="url(#d085de20e4)"><g transform="matrix(1, 0, 0, 1, 51, 151)"><g clip-path="url(#77b5f5f600)"><g clip-path="url(#1408f822cc)"><g clip-path="url(#c2ac6cc15e)"><path fill="#22d3ee" d="M 0.777344 0.921875 L 71.035156 0.921875 L 71.035156 71.179688 L 0.777344 71.179688 Z M 0.777344 0.921875 " fill-opacity="1" fill-rule="nonzero"/></g></g></g></g></g></g><g clip-path="url(#eb9a07b828)"><path fill="#ffffff" d="M 277.074219 176.355469 L 199.085938 176.355469 L 199.085938 98.367188 C 199.085938 97.632812 199.015625 96.910156 198.871094 96.191406 C 198.730469 95.476562 198.519531 94.777344 198.238281 94.101562 C 197.957031 93.425781 197.613281 92.785156 197.207031 92.175781 C 196.800781 91.566406 196.339844 91.003906 195.824219 90.488281 C 195.304688 89.96875 194.742188 89.507812 194.136719 89.101562 C 193.527344 88.695312 192.882812 88.351562 192.207031 88.074219 C 191.53125 87.792969 190.835938 87.582031 190.117188 87.4375 C 189.402344 87.296875 188.675781 87.226562 187.945312 87.226562 C 187.214844 87.226562 186.488281 87.296875 185.773438 87.4375 C 185.054688 87.582031 184.355469 87.792969 183.679688 88.074219 C 183.003906 88.351562 182.363281 88.695312 181.753906 89.101562 C 181.148438 89.507812 180.585938 89.96875 180.066406 90.488281 C 179.550781 91.003906 179.085938 91.566406 178.679688 92.175781 C 178.273438 92.785156 177.933594 93.425781 177.652344 94.101562 C 177.371094 94.777344 177.160156 95.476562 177.019531 96.191406 C 176.875 96.910156 176.804688 97.632812 176.804688 98.367188 L 176.804688 176.355469 L 98.816406 176.355469 C 98.082031 176.355469 97.359375 176.425781 96.640625 176.570312 C 95.925781 176.710938 95.226562 176.921875 94.550781 177.203125 C 93.875 177.484375 93.234375 177.824219 92.625 178.234375 C 92.015625 178.640625 91.453125 179.101562 90.9375 179.617188 C 90.417969 180.136719 89.957031 180.699219 89.550781 181.304688 C 89.144531 181.914062 88.800781 182.558594 88.523438 183.234375 C 88.242188 183.910156 88.03125 184.605469 87.886719 185.324219 C 87.746094 186.039062 87.671875 186.765625 87.671875 187.496094 C 87.671875 188.226562 87.746094 188.953125 87.886719 189.667969 C 88.03125 190.386719 88.242188 191.082031 88.523438 191.757812 C 88.800781 192.4375 89.144531 193.078125 89.550781 193.6875 C 89.957031 194.292969 90.417969 194.855469 90.9375 195.375 C 91.453125 195.890625 92.015625 196.351562 92.625 196.757812 C 93.234375 197.167969 93.875 197.507812 94.550781 197.789062 C 95.226562 198.070312 95.925781 198.28125 96.640625 198.421875 C 97.359375 198.566406 98.082031 198.636719 98.816406 198.636719 L 176.804688 198.636719 L 176.804688 276.625 C 176.804688 277.359375 176.875 278.082031 177.019531 278.800781 C 177.160156 279.515625 177.371094 280.214844 177.652344 280.890625 C 177.933594 281.566406 178.273438 282.207031 178.679688 282.816406 C 179.085938 283.425781 179.550781 283.988281 180.066406 284.503906 C 180.585938 285.023438 181.148438 285.484375 181.753906 285.890625 C 182.363281 286.296875 183.003906 286.640625 183.679688 286.917969 C 184.355469 287.199219 185.054688 287.410156 185.773438 287.554688 C 186.488281 287.695312 187.214844 287.769531 187.945312 287.769531 C 188.675781 287.769531 189.402344 287.695312 190.117188 287.554688 C 190.835938 287.410156 191.53125 287.199219 192.207031 286.917969 C 192.882812 286.640625 193.527344 286.296875 194.136719 285.890625 C 194.742188 285.484375 195.304688 285.023438 195.824219 284.503906 C 196.339844 283.988281 196.800781 283.425781 197.207031 282.816406 C 197.613281 282.207031 197.957031 281.566406 198.238281 280.890625 C 198.519531 280.214844 198.730469 279.515625 198.871094 278.800781 C 199.015625 278.082031 199.085938 277.359375 199.085938 276.625 L 199.085938 198.636719 L 277.074219 198.636719 C 277.808594 198.636719 278.53125 198.566406 279.25 198.421875 C 279.964844 198.28125 280.664062 198.070312 281.339844 197.789062 C 282.015625 197.507812 282.65625 197.167969 283.265625 196.757812 C 283.875 196.351562 284.4375 195.890625 284.953125 195.375 C 285.46875 194.855469 285.933594 194.292969 286.339844 193.6875 C 286.746094 193.078125 287.089844 192.4375 287.367188 191.757812 C 287.648438 191.082031 287.859375 190.386719 288.003906 189.667969 C 288.144531 188.953125 288.214844 188.226562 288.214844 187.496094 C 288.214844 186.765625 288.144531 186.039062 288.003906 185.324219 C 287.859375 184.605469 287.648438 183.910156 287.367188 183.234375 C 287.089844 182.558594 286.746094 181.914062 286.339844 181.304688 C 285.933594 180.699219 285.46875 180.136719 284.953125 179.617188 C 284.4375 179.101562 283.875 178.640625 283.265625 178.234375 C 282.65625 177.824219 282.015625 177.484375 281.339844 177.203125 C 280.664062 176.921875 279.964844 176.710938 279.25 176.570312 C 278.53125 176.425781 277.808594 176.355469 277.074219 176.355469 Z M 277.074219 176.355469 " fill-opacity="1" fill-rule="nonzero"/></g></svg>