<svg xmlns="http://www.w3.org/2000/svg" xmlns:xlink="http://www.w3.org/1999/xlink" width="500" zoomAndPan="magnify" viewBox="0 0 375 374.999991" height="500" preserveAspectRatio="xMidYMid meet" version="1.0"><defs><g/><clipPath id="e28c00319e"><path d="M 28.519531 28.9375 L 122.855469 28.9375 L 122.855469 123.273438 L 28.519531 123.273438 Z M 28.519531 28.9375 " clip-rule="nonzero"/></clipPath><clipPath id="a95a3b0970"><path d="M 75.6875 28.9375 C 49.636719 28.9375 28.519531 50.054688 28.519531 76.105469 C 28.519531 102.15625 49.636719 123.273438 75.6875 123.273438 C 101.738281 123.273438 122.855469 102.15625 122.855469 76.105469 C 122.855469 50.054688 101.738281 28.9375 75.6875 28.9375 Z M 75.6875 28.9375 " clip-rule="nonzero"/></clipPath><clipPath id="21ec29aff4"><path d="M 0.519531 0.9375 L 94.855469 0.9375 L 94.855469 95.273438 L 0.519531 95.273438 Z M 0.519531 0.9375 " clip-rule="nonzero"/></clipPath><clipPath id="be8595140f"><path d="M 47.6875 0.9375 C 21.636719 0.9375 0.519531 22.054688 0.519531 48.105469 C 0.519531 74.15625 21.636719 95.273438 47.6875 95.273438 C 73.738281 95.273438 94.855469 74.15625 94.855469 48.105469 C 94.855469 22.054688 73.738281 0.9375 47.6875 0.9375 Z M 47.6875 0.9375 " clip-rule="nonzero"/></clipPath><clipPath id="6711ba6747"><rect x="0" width="95" y="0" height="96"/></clipPath><clipPath id="af83f68e5b"><path d="M 28.519531 28.9375 L 122.679688 28.9375 L 122.679688 123.097656 L 28.519531 123.097656 Z M 28.519531 28.9375 " clip-rule="nonzero"/></clipPath><clipPath id="e6c6d47982"><path d="M 75.683594 28.9375 C 49.636719 28.9375 28.519531 50.054688 28.519531 76.101562 C 28.519531 102.152344 49.636719 123.269531 75.683594 123.269531 C 101.734375 123.269531 122.851562 102.152344 122.851562 76.101562 C 122.851562 50.054688 101.734375 28.9375 75.683594 28.9375 Z M 75.683594 28.9375 " clip-rule="nonzero"/></clipPath><clipPath id="d70731af27"><path d="M 61.042969 21.085938 L 90.332031 21.085938 L 90.332031 50.375 L 61.042969 50.375 Z M 61.042969 21.085938 " clip-rule="nonzero"/></clipPath><clipPath id="be2607c5e7"><path d="M 75.6875 21.085938 C 67.597656 21.085938 61.042969 27.640625 61.042969 35.730469 C 61.042969 43.816406 67.597656 50.375 75.6875 50.375 C 83.777344 50.375 90.332031 43.816406 90.332031 35.730469 C 90.332031 27.640625 83.777344 21.085938 75.6875 21.085938 Z M 75.6875 21.085938 " clip-rule="nonzero"/></clipPath><clipPath id="60b47d574a"><path d="M 0.0429688 0.0859375 L 29.332031 0.0859375 L 29.332031 29.375 L 0.0429688 29.375 Z M 0.0429688 0.0859375 " clip-rule="nonzero"/></clipPath><clipPath id="51ed00887c"><path d="M 14.6875 0.0859375 C 6.597656 0.0859375 0.0429688 6.640625 0.0429688 14.730469 C 0.0429688 22.816406 6.597656 29.375 14.6875 29.375 C 22.777344 29.375 29.332031 22.816406 29.332031 14.730469 C 29.332031 6.640625 22.777344 0.0859375 14.6875 0.0859375 Z M 14.6875 0.0859375 " clip-rule="nonzero"/></clipPath><clipPath id="4eb7887fda"><rect x="0" width="30" y="0" height="30"/></clipPath><clipPath id="8ede1a1785"><path d="M 102.792969 61.460938 L 132.082031 61.460938 L 132.082031 90.75 L 102.792969 90.75 Z M 102.792969 61.460938 " clip-rule="nonzero"/></clipPath><clipPath id="b5ecaa4a2b"><path d="M 117.4375 61.460938 C 109.351562 61.460938 102.792969 68.015625 102.792969 76.105469 C 102.792969 84.191406 109.351562 90.75 117.4375 90.75 C 125.527344 90.75 132.082031 84.191406 132.082031 76.105469 C 132.082031 68.015625 125.527344 61.460938 117.4375 61.460938 Z M 117.4375 61.460938 " clip-rule="nonzero"/></clipPath><clipPath id="1c08d8e05c"><path d="M 0.792969 0.460938 L 30.082031 0.460938 L 30.082031 29.75 L 0.792969 29.75 Z M 0.792969 0.460938 " clip-rule="nonzero"/></clipPath><clipPath id="9b9aeb56a2"><path d="M 15.4375 0.460938 C 7.351562 0.460938 0.792969 7.015625 0.792969 15.105469 C 0.792969 23.191406 7.351562 29.75 15.4375 29.75 C 23.527344 29.75 30.082031 23.191406 30.082031 15.105469 C 30.082031 7.015625 23.527344 0.460938 15.4375 0.460938 Z M 15.4375 0.460938 " clip-rule="nonzero"/></clipPath><clipPath id="2e8c30e98b"><rect x="0" width="31" y="0" height="30"/></clipPath><clipPath id="9292a35ee1"><path d="M 61.042969 102.210938 L 90.332031 102.210938 L 90.332031 131.5 L 61.042969 131.5 Z M 61.042969 102.210938 " clip-rule="nonzero"/></clipPath><clipPath id="d573c47026"><path d="M 75.6875 102.210938 C 67.597656 102.210938 61.042969 108.765625 61.042969 116.855469 C 61.042969 124.941406 67.597656 131.5 75.6875 131.5 C 83.777344 131.5 90.332031 124.941406 90.332031 116.855469 C 90.332031 108.765625 83.777344 102.210938 75.6875 102.210938 Z M 75.6875 102.210938 " clip-rule="nonzero"/></clipPath><clipPath id="8872d19518"><path d="M 0.0429688 0.210938 L 29.332031 0.210938 L 29.332031 29.5 L 0.0429688 29.5 Z M 0.0429688 0.210938 " clip-rule="nonzero"/></clipPath><clipPath id="82329de120"><path d="M 14.6875 0.210938 C 6.597656 0.210938 0.0429688 6.765625 0.0429688 14.855469 C 0.0429688 22.941406 6.597656 29.5 14.6875 29.5 C 22.777344 29.5 29.332031 22.941406 29.332031 14.855469 C 29.332031 6.765625 22.777344 0.210938 14.6875 0.210938 Z M 14.6875 0.210938 " clip-rule="nonzero"/></clipPath><clipPath id="eea3c1580d"><rect x="0" width="30" y="0" height="30"/></clipPath><clipPath id="5e77d4e4ae"><path d="M 18.917969 61.460938 L 48.207031 61.460938 L 48.207031 90.75 L 18.917969 90.75 Z M 18.917969 61.460938 " clip-rule="nonzero"/></clipPath><clipPath id="ed1ed82974"><path d="M 33.5625 61.460938 C 25.472656 61.460938 18.917969 68.015625 18.917969 76.105469 C 18.917969 84.191406 25.472656 90.75 33.5625 90.75 C 41.648438 90.75 48.207031 84.191406 48.207031 76.105469 C 48.207031 68.015625 41.648438 61.460938 33.5625 61.460938 Z M 33.5625 61.460938 " clip-rule="nonzero"/></clipPath><clipPath id="e36e89ca46"><path d="M 0.917969 0.460938 L 30.207031 0.460938 L 30.207031 29.75 L 0.917969 29.75 Z M 0.917969 0.460938 " clip-rule="nonzero"/></clipPath><clipPath id="e4b08a0570"><path d="M 15.5625 0.460938 C 7.472656 0.460938 0.917969 7.015625 0.917969 15.105469 C 0.917969 23.191406 7.472656 29.75 15.5625 29.75 C 23.648438 29.75 30.207031 23.191406 30.207031 15.105469 C 30.207031 7.015625 23.648438 0.460938 15.5625 0.460938 Z M 15.5625 0.460938 " clip-rule="nonzero"/></clipPath><clipPath id="60087b92ba"><rect x="0" width="31" y="0" height="30"/></clipPath><clipPath id="f4073a26b6"><path d="M 33.882812 34.488281 L 117.722656 34.488281 L 117.722656 118.328125 L 33.882812 118.328125 Z M 33.882812 34.488281 " clip-rule="nonzero"/></clipPath><clipPath id="733884761d"><rect x="0" width="152" y="0" height="152"/></clipPath><clipPath id="a483a9cba7"><rect x="0" width="261" y="0" height="115"/></clipPath></defs><g transform="matrix(1, 0, 0, 1, 112, 56)"><g clip-path="url(#733884761d)"><g clip-path="url(#e28c00319e)"><g clip-path="url(#a95a3b0970)"><g transform="matrix(1, 0, 0, 1, 28, 28)"><g clip-path="url(#6711ba6747)"><g clip-path="url(#21ec29aff4)"><g clip-path="url(#be8595140f)"><path fill="#000000" d="M 0.519531 0.9375 L 94.855469 0.9375 L 94.855469 95.273438 L 0.519531 95.273438 Z M 0.519531 0.9375 " fill-opacity="1" fill-rule="nonzero"/></g></g></g></g></g></g><g clip-path="url(#af83f68e5b)"><g clip-path="url(#e6c6d47982)"><path stroke-linecap="butt" transform="matrix(0.644937, 0, 0, 0.644937, 28.518457, 28.936161)" fill="none" stroke-linejoin="miter" d="M 73.131385 0.00207545 C 32.744689 0.00207545 0.00166549 32.745099 0.00166549 73.131795 C 0.00166549 113.524548 32.744689 146.267572 73.131385 146.267572 C 113.524138 146.267572 146.267162 113.524548 146.267162 73.131795 C 146.267162 32.745099 113.524138 0.00207545 73.131385 0.00207545 Z M 73.131385 0.00207545 " stroke="#ffffff" stroke-width="20.932274" stroke-opacity="1" stroke-miterlimit="4"/></g></g><g clip-path="url(#d70731af27)"><g clip-path="url(#be2607c5e7)"><g transform="matrix(1, 0, 0, 1, 61, 21)"><g clip-path="url(#4eb7887fda)"><g clip-path="url(#60b47d574a)"><g clip-path="url(#51ed00887c)"><path fill="#22d3ee" d="M 0.0429688 0.0859375 L 29.332031 0.0859375 L 29.332031 29.375 L 0.0429688 29.375 Z M 0.0429688 0.0859375 " fill-opacity="1" fill-rule="nonzero"/></g></g></g></g></g></g><g clip-path="url(#8ede1a1785)"><g clip-path="url(#b5ecaa4a2b)"><g transform="matrix(1, 0, 0, 1, 102, 61)"><g clip-path="url(#2e8c30e98b)"><g clip-path="url(#1c08d8e05c)"><g clip-path="url(#9b9aeb56a2)"><path fill="#22d3ee" d="M 0.792969 0.460938 L 30.082031 0.460938 L 30.082031 29.75 L 0.792969 29.75 Z M 0.792969 0.460938 " fill-opacity="1" fill-rule="nonzero"/></g></g></g></g></g></g><g clip-path="url(#9292a35ee1)"><g clip-path="url(#d573c47026)"><g transform="matrix(1, 0, 0, 1, 61, 102)"><g clip-path="url(#eea3c1580d)"><g clip-path="url(#8872d19518)"><g clip-path="url(#82329de120)"><path fill="#22d3ee" d="M 0.0429688 0.210938 L 29.332031 0.210938 L 29.332031 29.5 L 0.0429688 29.5 Z M 0.0429688 0.210938 " fill-opacity="1" fill-rule="nonzero"/></g></g></g></g></g></g><g clip-path="url(#5e77d4e4ae)"><g clip-path="url(#ed1ed82974)"><g transform="matrix(1, 0, 0, 1, 18, 61)"><g clip-path="url(#60087b92ba)"><g clip-path="url(#e36e89ca46)"><g clip-path="url(#e4b08a0570)"><path fill="#22d3ee" d="M 0.917969 0.460938 L 30.207031 0.460938 L 30.207031 29.75 L 0.917969 29.75 Z M 0.917969 0.460938 " fill-opacity="1" fill-rule="nonzero"/></g></g></g></g></g></g><g clip-path="url(#f4073a26b6)"><path fill="#ffffff" d="M 112.847656 71.648438 L 80.332031 71.648438 L 80.332031 39.132812 C 80.332031 38.828125 80.300781 38.523438 80.242188 38.226562 C 80.183594 37.925781 80.09375 37.636719 79.976562 37.355469 C 79.863281 37.074219 79.71875 36.804688 79.550781 36.550781 C 79.378906 36.296875 79.1875 36.0625 78.972656 35.847656 C 78.753906 35.632812 78.519531 35.4375 78.265625 35.269531 C 78.015625 35.101562 77.746094 34.957031 77.464844 34.839844 C 77.183594 34.722656 76.890625 34.636719 76.59375 34.574219 C 76.292969 34.515625 75.992188 34.488281 75.6875 34.488281 C 75.382812 34.488281 75.078125 34.515625 74.78125 34.574219 C 74.480469 34.636719 74.191406 34.722656 73.910156 34.839844 C 73.628906 34.957031 73.359375 35.101562 73.105469 35.269531 C 72.851562 35.4375 72.617188 35.632812 72.402344 35.847656 C 72.1875 36.0625 71.992188 36.296875 71.824219 36.550781 C 71.65625 36.804688 71.511719 37.074219 71.394531 37.355469 C 71.277344 37.636719 71.191406 37.925781 71.132812 38.226562 C 71.070312 38.523438 71.042969 38.828125 71.042969 39.132812 L 71.042969 71.648438 L 38.527344 71.648438 C 38.222656 71.648438 37.917969 71.675781 37.621094 71.734375 C 37.320312 71.796875 37.03125 71.882812 36.75 72 C 36.46875 72.117188 36.199219 72.261719 35.945312 72.429688 C 35.691406 72.597656 35.457031 72.792969 35.242188 73.007812 C 35.027344 73.222656 34.835938 73.457031 34.664062 73.710938 C 34.496094 73.964844 34.351562 74.234375 34.234375 74.515625 C 34.117188 74.796875 34.03125 75.085938 33.972656 75.386719 C 33.910156 75.683594 33.882812 75.988281 33.882812 76.292969 C 33.882812 76.597656 33.910156 76.898438 33.972656 77.199219 C 34.03125 77.496094 34.117188 77.789062 34.234375 78.070312 C 34.351562 78.351562 34.496094 78.617188 34.664062 78.871094 C 34.835938 79.125 35.027344 79.359375 35.242188 79.578125 C 35.457031 79.792969 35.691406 79.984375 35.945312 80.152344 C 36.199219 80.324219 36.46875 80.464844 36.75 80.582031 C 37.03125 80.699219 37.320312 80.789062 37.621094 80.847656 C 37.917969 80.90625 38.222656 80.9375 38.527344 80.9375 L 71.042969 80.9375 L 71.042969 113.453125 C 71.042969 113.757812 71.070312 114.058594 71.132812 114.359375 C 71.191406 114.65625 71.277344 114.949219 71.394531 115.230469 C 71.511719 115.511719 71.65625 115.777344 71.824219 116.03125 C 71.992188 116.285156 72.1875 116.519531 72.402344 116.738281 C 72.617188 116.953125 72.851562 117.144531 73.105469 117.3125 C 73.359375 117.484375 73.628906 117.625 73.910156 117.742188 C 74.191406 117.859375 74.480469 117.949219 74.78125 118.007812 C 75.078125 118.066406 75.382812 118.097656 75.6875 118.097656 C 75.992188 118.097656 76.292969 118.066406 76.59375 118.007812 C 76.890625 117.949219 77.183594 117.859375 77.464844 117.742188 C 77.746094 117.625 78.015625 117.484375 78.265625 117.3125 C 78.519531 117.144531 78.753906 116.953125 78.972656 116.738281 C 79.1875 116.519531 79.378906 116.285156 79.550781 116.03125 C 79.71875 115.777344 79.863281 115.511719 79.976562 115.230469 C 80.09375 114.949219 80.183594 114.65625 80.242188 114.359375 C 80.300781 114.058594 80.332031 113.757812 80.332031 113.453125 L 80.332031 80.9375 L 112.847656 80.9375 C 113.152344 80.9375 113.453125 80.90625 113.753906 80.847656 C 114.050781 80.789062 114.34375 80.699219 114.625 80.582031 C 114.90625 80.464844 115.171875 80.324219 115.425781 80.152344 C 115.679688 79.984375 115.914062 79.792969 116.132812 79.578125 C 116.347656 79.359375 116.539062 79.125 116.707031 78.871094 C 116.878906 78.617188 117.019531 78.351562 117.136719 78.070312 C 117.253906 77.789062 117.34375 77.496094 117.402344 77.199219 C 117.460938 76.898438 117.492188 76.597656 117.492188 76.292969 C 117.492188 75.988281 117.460938 75.683594 117.402344 75.386719 C 117.34375 75.085938 117.253906 74.796875 117.136719 74.515625 C 117.019531 74.234375 116.878906 73.964844 116.707031 73.710938 C 116.539062 73.457031 116.347656 73.222656 116.132812 73.007812 C 115.914062 72.792969 115.679688 72.597656 115.425781 72.429688 C 115.171875 72.261719 114.90625 72.117188 114.625 72 C 114.34375 71.882812 114.050781 71.796875 113.753906 71.734375 C 113.453125 71.675781 113.152344 71.648438 112.847656 71.648438 Z M 112.847656 71.648438 " fill-opacity="1" fill-rule="nonzero"/></g></g></g><g transform="matrix(1, 0, 0, 1, 58, 181)"><g clip-path="url(#a483a9cba7)"><g fill="#ffffff" fill-opacity="1"><g transform="translate(0.173384, 87.421437)"><g><path d="M 6.859375 0 L 6.859375 -60.3125 L 20.9375 -60.3125 L 37.015625 -11.015625 L 53.078125 -60.3125 L 67.171875 -60.3125 L 67.171875 0 L 58.6875 0 L 58.6875 -51.453125 L 41.265625 0 L 32.859375 0 L 15.34375 -51.453125 L 15.34375 0 Z M 6.859375 0 "/></g></g></g><g fill="#ffffff" fill-opacity="1"><g transform="translate(74.189749, 87.421437)"><g><path d="M 32.765625 1.078125 C 26.992188 1.078125 22 -0.257812 17.78125 -2.9375 C 13.570312 -5.613281 10.304688 -9.3125 7.984375 -14.03125 C 5.671875 -18.757812 4.515625 -24.164062 4.515625 -30.25 C 4.515625 -36.320312 5.671875 -41.691406 7.984375 -46.359375 C 10.304688 -51.023438 13.570312 -54.695312 17.78125 -57.375 C 22 -60.050781 26.992188 -61.390625 32.765625 -61.390625 C 38.609375 -61.390625 43.632812 -60.050781 47.84375 -57.375 C 52.0625 -54.695312 55.328125 -51.023438 57.640625 -46.359375 C 59.960938 -41.691406 61.125 -36.320312 61.125 -30.25 C 61.125 -24.164062 59.960938 -18.757812 57.640625 -14.03125 C 55.328125 -9.3125 52.0625 -5.613281 47.84375 -2.9375 C 43.632812 -0.257812 38.609375 1.078125 32.765625 1.078125 Z M 32.765625 -6.046875 C 36.441406 -6.046875 39.769531 -6.976562 42.75 -8.84375 C 45.726562 -10.707031 48.085938 -13.429688 49.828125 -17.015625 C 51.578125 -20.597656 52.453125 -25.007812 52.453125 -30.25 C 52.453125 -35.425781 51.578125 -39.800781 49.828125 -43.375 C 48.085938 -46.957031 45.726562 -49.664062 42.75 -51.5 C 39.769531 -53.34375 36.441406 -54.265625 32.765625 -54.265625 C 29.160156 -54.265625 25.867188 -53.34375 22.890625 -51.5 C 19.910156 -49.664062 17.546875 -46.957031 15.796875 -43.375 C 14.054688 -39.800781 13.1875 -35.425781 13.1875 -30.25 C 13.1875 -25.007812 14.054688 -20.597656 15.796875 -17.015625 C 17.546875 -13.429688 19.910156 -10.707031 22.890625 -8.84375 C 25.867188 -6.976562 29.160156 -6.046875 32.765625 -6.046875 Z M 32.765625 -6.046875 "/></g></g></g><g fill="#ffffff" fill-opacity="1"><g transform="translate(139.811562, 87.421437)"><g><path d="M 6.859375 0 L 6.859375 -60.3125 L 15.34375 -60.3125 L 15.34375 -29.96875 L 42.515625 -60.3125 L 53.078125 -60.3125 L 30.0625 -35.125 L 55.703125 0 L 45.328125 0 L 24.375 -28.890625 L 15.34375 -18.953125 L 15.34375 0 Z M 6.859375 0 "/></g></g></g><g fill="#ffffff" fill-opacity="1"><g transform="translate(196.406987, 87.421437)"><g><path d="M 31.140625 1.078125 C 22.421875 1.078125 16.191406 -1.097656 12.453125 -5.453125 C 8.722656 -9.816406 6.859375 -16.394531 6.859375 -25.1875 L 6.859375 -60.3125 L 15.34375 -60.3125 L 15.34375 -24.5625 C 15.34375 -18.601562 16.53125 -14.054688 18.90625 -10.921875 C 21.289062 -7.796875 25.367188 -6.234375 31.140625 -6.234375 C 36.921875 -6.234375 41 -7.796875 43.375 -10.921875 C 45.757812 -14.054688 46.953125 -18.601562 46.953125 -24.5625 L 46.953125 -60.3125 L 55.4375 -60.3125 L 55.4375 -25.1875 C 55.4375 -16.394531 53.582031 -9.816406 49.875 -5.453125 C 46.175781 -1.097656 39.929688 1.078125 31.140625 1.078125 Z M 31.140625 1.078125 "/></g></g></g></g></g></svg>